<svg xmlns="http://www.w3.org/2000/svg" viewBox="0 0 512 512" aria-hidden="true">
  <circle cx="256" cy="256" r="232" fill="none" stroke="#23f2a1" stroke-width="24"/>
  <g fill="#23f2a1">
    <path d="M240 336c0-8.8 7.2-16 16-16c45 0 85.6 20.5 115.7 53.1c6 6.5 5.6 16.6-.9 22.6s-16.6 5.6-22.6-.9c-25-27.1-57.4-42.9-92.3-42.9c-8.8 0-16-7.2-16-16z"/>
    <path d="M160 416c-26.5 0-48-21-48-47c0-20 28.6-60.4 41.6-77.7c3.2-4.4 9.6-4.4 12.8 0C179.6 308.6 208 349 208 369c0 26-21.5 47-48 47z"/>
    <path d="M367.6 208a32 32 0 1 1 -64 0 32 32 0 1 1 64 0z"/>
    <path d="M175.6 176a32 32 0 1 1 0 64 32 32 0 1 1 0-64z"/>
  </g>
</svg>
